name analog
datacolumns 19
datarows 44
range 0.182 0.20350000000000001
endheader
time	ground_force_vx	ground_force_vy	ground_force_vz	ground_force_px	ground_force_py	ground_force_pz	l_ground_force_vx	l_ground_force_vy	l_ground_force_vz	l_ground_force_px	l_ground_force_py	l_ground_force_pz	ground_torque_x	ground_torque_y	ground_torque_z	l_ground_torque_x	l_ground_torque_y	l_ground_torque_z
0.182	-0.0	-0.0	-0.0	4.8032402992248535	-1.6594982147216797	-762.1063842773438	-0.0	-0.0	-0.0	-35.081485748291016	16.194534301757812	74.91477966308594	-0.0	-0.0	-0.0	-0.0	-0.0	-0.0
0.1825	-0.0	-0.0	-0.0	3.4442689418792725	-3.229640245437622	-762.6261596679688	-0.0	-0.0	-0.0	-35.019588470458984	16.187686920166016	75.103759765625	-0.0	-0.0	-0.0	-0.0	-0.0	-0.0
0.183	-0.0	-0.0	-0.0	2.525672674179077	-3.887579917907715	-765.2330322265625	-0.0	-0.0	-0.0	-34.80610656738281	16.29130744934082	76.53410339355469	-0.0	-0.0	-0.0	-0.0	-0.0	-0.0
0.1835	-0.0	-0.0	-0.0	2.0312340259552	-4.614236354827881	-766.3732299804688	-0.0	-0.0	-0.0	-34.70988464355469	16.062942504882812	76.29273223876953	-0.0	-0.0	-0.0	-0.0	-0.0	-0.0
0.184	-0.0	-0.0	-0.0	1.4889581203460691	-5.01166582107544	-767.8938598632812	-0.0	-0.0	-0.0	-34.47457504272461	16.271202087402344	76.8585205078125	-0.0	-0.0	-0.0	-0.0	-0.0	-0.0
0.1845	-0.0	-0.0	-0.0	0.8921051025390625	-5.045992851257324	-766.8070678710938	-0.0	-0.0	-0.0	-34.757904052734375	16.18130874633789	76.07923126220703	-0.0	-0.0	-0.0	-0.0	-0.0	-0.0
0.185	-0.0	-0.0	-0.0	0.4806367456912994	-4.27825927734375	-766.453369140625	-0.0	-0.0	-0.0	-34.77334976196289	16.14628028869629	76.1566162109375	-0.0	-0.0	-0.0	-0.0	-0.0	-0.0
0.1855	-0.0	-0.0	-0.0	-0.2742368876934051	-3.256559371948242	-764.9093017578125	-0.0	-0.0	-0.0	-34.94959259033203	16.05634880065918	75.99374389648438	-0.0	-0.0	-0.0	-0.0	-0.0	-0.0
0.186	-0.0	-0.0	-0.0	-1.4968822002410889	-1.543383002281189	-763.6010131835938	-0.0	-0.0	-0.0	-34.882423400878906	16.05636978149414	74.91576385498047	-0.0	-0.0	-0.0	-0.0	-0.0	-0.0
0.1865	-0.0	-0.0	-0.0	-3.1223678588867188	0.7324961423873901	-759.1473999023438	-0.0	-0.0	-0.0	-34.99087905883789	15.91193675994873	76.18136596679688	-0.0	-0.0	-0.0	-0.0	-0.0	-0.0
0.187	-0.0	-0.0	-0.0	-3.9316773414611816	2.104177951812744	-754.858642578125	-0.0	-0.0	-0.0	-34.57881546020508	16.278236389160156	75.94446563720703	-0.0	-0.0	-0.0	-0.0	-0.0	-0.0
0.1875	-0.0	-0.0	-0.0	-5.1742095947265625	3.1895384788513184	-750.1288452148438	-0.0	-0.0	-0.0	-34.53718185424805	16.416336059570312	74.37749481201172	-0.0	-0.0	-0.0	-0.0	-0.0	-0.0
0.188	-0.0	-0.0	-0.0	-6.311446189880371	4.545650482177734	-747.0006103515625	-0.0	-0.0	-0.0	-34.566497802734375	15.924625396728516	75.4547119140625	-0.0	-0.0	-0.0	-0.0	-0.0	-0.0
0.1885	-0.0	-0.0	-0.0	-6.286220550537109	4.949854850769043	-745.7764892578125	-0.0	-0.0	-0.0	-34.83498764038086	16.140411376953125	76.10908508300781	-0.0	-0.0	-0.0	-0.0	-0.0	-0.0
0.189	-0.0	-0.0	-0.0	-6.340132236480713	5.1633830070495605	-743.4437255859375	-0.0	-0.0	-0.0	-34.69817352294922	16.512447357177734	77.02222442626953	-0.0	-0.0	-0.0	-0.0	-0.0	-0.0
0.1895	-0.0	-0.0	-0.0	-5.483382225036621	5.134182929992676	-742.785888671875	-0.0	-0.0	-0.0	-34.76353454589844	16.20051383972168	75.57134246826172	-0.0	-0.0	-0.0	-0.0	-0.0	-0.0
0.19	-0.0	-0.0	-0.0	-5.549211502075195	5.341776371002197	-742.5967407226562	-0.0	-0.0	-0.0	-34.805213928222656	16.326536178588867	74.12274932861328	-0.0	-0.0	-0.0	-0.0	-0.0	-0.0
0.1905	-0.0	-0.0	-0.0	-5.126615524291992	4.860593318939209	-744.0326538085938	-0.0	-0.0	-0.0	-34.728538513183594	15.97252368927002	75.8056640625	-0.0	-0.0	-0.0	-0.0	-0.0	-0.0
0.191	-0.0	-0.0	-0.0	-4.710323810577393	4.224785804748535	-744.479736328125	-0.0	-0.0	-0.0	-34.80510330200195	16.54282569885254	75.08116149902344	-0.0	-0.0	-0.0	-0.0	-0.0	-0.0
0.1915	-0.0	-0.0	-0.0	-5.174797534942627	4.284122943878174	-746.0578002929688	-0.0	-0.0	-0.0	-35.0087776184082	16.295940399169922	75.26808166503906	-0.0	-0.0	-0.0	-0.0	-0.0	-0.0
0.192	-0.0	-0.0	-0.0	-5.1800031661987305	3.856913089752197	-747.1636352539062	-0.0	-0.0	-0.0	-34.83565902709961	16.045475006103516	75.64118957519531	-0.0	-0.0	-0.0	-0.0	-0.0	-0.0
0.1925	-0.0	-0.0	-0.0	-5.293623924255371	2.893860340118408	-748.7186279296875	-0.0	-0.0	-0.0	-35.03135681152344	16.01459503173828	74.93922424316406	-0.0	-0.0	-0.0	-0.0	-0.0	-0.0
0.193	-0.0	-0.0	-0.0	-5.829075336456299	2.2225799560546875	-751.2587280273438	-0.0	-0.0	-0.0	-34.768367767333984	16.12116241455078	75.103759765625	-0.0	-0.0	-0.0	-0.0	-0.0	-0.0
0.1935	-0.0	-0.0	-0.0	-6.607187747955322	1.977683424949646	-751.633544921875	-0.0	-0.0	-0.0	-34.757328033447266	16.07322120666504	75.86952209472656	-0.0	-0.0	-0.0	-0.0	-0.0	-0.0
0.194	-0.0	-0.0	-0.0	-7.493682861328125	2.0444278717041016	-754.7234497070312	-0.0	-0.0	-0.0	-34.88880157470703	16.009172439575195	75.66191864013672	-0.0	-0.0	-0.0	-0.0	-0.0	-0.0
0.1945	-0.0	-0.0	-0.0	-7.683105945587158	1.5097206830978394	-756.6771850585938	-0.0	-0.0	-0.0	-35.0150146484375	15.8930082321167	75.64061737060547	-0.0	-0.0	-0.0	-0.0	-0.0	-0.0
0.195	-0.0	-0.0	-0.0	-8.647994041442871	0.6657676100730896	-760.7925415039062	-0.0	-0.0	-0.0	-34.79410171508789	16.199804306030273	75.4547119140625	-0.0	-0.0	-0.0	-0.0	-0.0	-0.0
0.1955	-0.0	-0.0	-0.0	-9.623926162719728	0.6549785137176514	-762.0391845703125	-0.0	-0.0	-0.0	-34.862342834472656	16.32686424255371	76.01185607910156	-0.0	-0.0	-0.0	-0.0	-0.0	-0.0
0.196	-0.0	-0.0	-0.0	-10.52151107788086	0.4403274953365326	-762.3071899414062	-0.0	-0.0	-0.0	-34.704742431640625	16.284503936767578	75.12393951416016	-0.0	-0.0	-0.0	-0.0	-0.0	-0.0
0.1965	-0.0	-0.0	-0.0	-10.57407283782959	-0.1048780679702758	-766.1926879882812	-0.0	-0.0	-0.0	-34.794273376464844	16.23187255859375	76.44791412353516	-0.0	-0.0	-0.0	-0.0	-0.0	-0.0
0.197	-0.0	-0.0	-0.0	-10.474440574645996	-1.3944995403289795	-767.2730712890625	-0.0	-0.0	-0.0	-34.931026458740234	16.23699951171875	76.94554138183594	-0.0	-0.0	-0.0	-0.0	-0.0	-0.0
0.1975	-0.0	-0.0	-0.0	-9.850056648254396	-1.918869376182556	-770.1597290039062	-0.0	-0.0	-0.0	-34.79439163208008	16.104564666748047	76.01026916503906	-0.0	-0.0	-0.0	-0.0	-0.0	-0.0
0.198	-0.0	-0.0	-0.0	-9.02038288116455	-1.2848063707351685	-774.150390625	-0.0	-0.0	-0.0	-34.96851348876953	15.952449798583984	75.9333267211914	-0.0	-0.0	-0.0	-0.0	-0.0	-0.0
0.1985	-0.0	-0.0	-0.0	-7.347403526306152	-0.965491533279419	-774.1901245117188	-0.0	-0.0	-0.0	-34.94552993774414	15.882054328918455	76.48873901367188	-0.0	-0.0	-0.0	-0.0	-0.0	-0.0
0.199	-0.0	-0.0	-0.0	-5.793733596801758	0.9432868957519532	-776.770263671875	-0.0	-0.0	-0.0	-34.88880157470703	16.36968231201172	74.73412322998047	-0.0	-0.0	-0.0	-0.0	-0.0	-0.0
0.1995	-0.0	-0.0	-0.0	-4.844913005828857	4.36908769607544	-778.4278564453125	-0.0	-0.0	-0.0	-34.653438568115234	16.00988006591797	75.30682373046875	-0.0	-0.0	-0.0	-0.0	-0.0	-0.0
0.2	-0.0	-0.0	-0.0	-4.009674072265625	8.697405815124512	-778.1314086914062	-0.0	-0.0	-0.0	-34.799346923828125	16.01923370361328	75.28828430175781	-0.0	-0.0	-0.0	-0.0	-0.0	-0.0
0.2005	-0.0	-0.0	-0.0	-5.094526290893555	12.48301601409912	-776.4943237304688	-0.0	-0.0	-0.0	-34.65371322631836	15.920022010803224	76.45369720458984	-0.0	-0.0	-0.0	-0.0	-0.0	-0.0
0.201	-0.0	-0.0	-0.0	-6.747114181518555	15.344481468200684	-772.5347290039062	-0.0	-0.0	-0.0	-34.66740798950195	16.00554084777832	75.6390151977539	-0.0	-0.0	-0.0	-0.0	-0.0	-0.0
0.2015	-0.0	-0.0	-0.0	-7.73285436630249	17.394254684448242	-770.4163818359375	-0.0	-0.0	-0.0	-34.70103454589844	16.010143280029297	75.62150573730469	-0.0	-0.0	-0.0	-0.0	-0.0	-0.0
0.202	-0.0	-0.0	-0.0	-8.479583740234375	20.00748443603516	-767.2742919921875	-0.0	-0.0	-0.0	-34.94013214111328	16.284503936767578	75.2878646850586	-0.0	-0.0	-0.0	-0.0	-0.0	-0.0
0.2025	-0.0	-0.0	-0.0	-8.633620262145996	22.2583122253418	-767.42431640625	-0.0	-0.0	-0.0	-34.543941497802734	16.194534301757812	75.5877914428711	-0.0	-0.0	-0.0	-0.0	-0.0	-0.0
0.203	-0.0	-0.0	-0.0	-8.414871215820312	23.849029541015625	-763.4423217773438	-0.0	-0.0	-0.0	-34.66728210449219	16.198806762695312	76.69137573242188	-0.0	-0.0	-0.0	-0.0	-0.0	-0.0
0.20350000000000001	-0.0	-0.0	-0.0	-8.568603515625	24.328208923339844	-762.4806518554688	-0.0	-0.0	-0.0	-34.9698486328125	16.15166473388672	75.95638275146484	-0.0	-0.0	-0.0	-0.0	-0.0	-0.0
